<?xml version="1.0" encoding="UTF-8"?>
<svg version="1.1" xmlns="http://www.w3.org/2000/svg" width="500" height="500">
<path d="M0 0 C165 0 330 0 500 0 C500 165 500 330 500 500 C335 500 170 500 0 500 C0 335 0 170 0 0 Z " fill="#FEFEFE" transform="translate(0,0)"/>
<path d="M0 0 C3.82622743 1.5588334 6.25147379 3.95433582 9 7 C9.99455909 9.98367726 10.19559632 12.2004192 10.31640625 15.32421875 C10.35830078 16.35224609 10.40019531 17.38027344 10.44335938 18.43945312 C10.48267578 19.51130859 10.52199219 20.58316406 10.5625 21.6875 C10.60568359 22.77095703 10.64886719 23.85441406 10.69335938 24.97070312 C10.79946838 27.64700791 10.90152361 30.32340526 11 33 C11.45890625 32.45730469 11.9178125 31.91460937 12.390625 31.35546875 C13.00421875 30.64003906 13.6178125 29.92460937 14.25 29.1875 C14.85328125 28.47980469 15.4565625 27.77210938 16.078125 27.04296875 C19.35716425 23.55732337 21.0929185 22.11518495 25.9375 21.5 C29.21155941 21.64632668 30.03766896 22.0262045 32.875 24 C35.50945526 27.71923096 36.16912455 30.5434862 37 35 C37.30550781 34.33355469 37.61101562 33.66710937 37.92578125 32.98046875 C43.45102386 21.85216321 51.60648047 13.15838467 63 8 C63.66 7.67 64.32 7.34 65 7 C69.19157583 6.23473304 72.62722668 6.13065458 76.30078125 8.45703125 C79.36009503 11.11365656 81.74625768 13.61938653 84 17 C84.94875 16.938125 85.8975 16.87625 86.875 16.8125 C87.90625 16.874375 88.9375 16.93625 90 17 C92.4375 19.8125 92.4375 19.8125 94 23 C92.63146539 27.10560382 89.85745508 28.44571423 86.375 30.6875 C85.77042969 31.10322266 85.16585937 31.51894531 84.54296875 31.94726562 C80.27523326 34.71810881 77.21827335 35.70365739 72 35 C69.890625 33.828125 69.890625 33.828125 68.25 32.25 C67.38181641 31.43402344 67.38181641 31.43402344 66.49609375 30.6015625 C65 29 65 29 63.3125 26.625 C62.879375 26.08875 62.44625 25.5525 62 25 C60.68 25 59.36 25 58 25 C55.50585528 29.98828944 56.35583683 37.3690203 57.6484375 42.6484375 C59.77939845 47.98494655 62.92393144 52.17403746 68 55 C72.45216991 55.78108244 74.29011858 55.41757731 78.1875 53.125 C79.115625 52.42375 80.04375 51.7225 81 51 C82.3191582 50.30570621 83.64649406 49.62469505 85 49 C85.99 49.99 86.98 50.98 88 52 C88.66 50.948125 89.32 49.89625 90 48.8125 C92.94285445 44.63992251 96.55874891 42.39144289 101 40 C95.44946714 40.74359673 95.44946714 40.74359673 90 42 C86 36.25 86 36.25 86 34 C87.45288086 32.77905273 87.45288086 32.77905273 89.46484375 31.43359375 C90.18220703 30.94826172 90.89957031 30.46292969 91.63867188 29.96289062 C92.7765918 29.20782227 92.7765918 29.20782227 93.9375 28.4375 C95.4262746 27.43693159 96.91458066 26.43566557 98.40234375 25.43359375 C99.06741943 24.99072021 99.73249512 24.54784668 100.41772461 24.09155273 C101.96747381 23.09269727 101.96747381 23.09269727 103 22 C110.69589585 21.10672637 117.5196411 22.75226821 124 26.9375 C126.11087214 29.1143369 126.42411162 30.12655694 127 33 C132.07622259 29.08566836 137.10627688 25.14084264 142 21 C144.88437779 22.29299694 146.87219421 23.65941363 149 26 C151.46800047 24.84826645 153.04783565 23.95216435 155 22 C159.45355865 22.28732636 163.15100832 22.5943802 167 25 C166.484375 24.2575 165.96875 23.515 165.4375 22.75 C164 20 164 20 164.22363281 18.0144043 C165.63847064 14.34338954 168.80019292 12.28759117 171.75 9.8125 C172.37132812 9.26658203 172.99265625 8.72066406 173.6328125 8.15820312 C176.9770981 5.31132709 179.44664401 3.30413637 184 3 C184.98475214 4.09918816 185.96260473 5.2045602 186.9375 6.3125 C187.75541016 7.23482422 187.75541016 7.23482422 188.58984375 8.17578125 C191.84366818 12.38502228 191.07329211 16.94284475 191 22 C194.96 22 198.92 22 203 22 C203.56102155 25.84700494 203.6912162 27.9050983 201.58203125 31.24609375 C199.80122852 33.37622239 198.18875216 35.28725695 196 37 C194.68 37 193.36 37 192 37 C192 42.28 192 47.56 192 53 C193.65 52.01 195.3 51.02 197 50 C197.66 50 198.32 50 199 50 C200.38938077 51.96147874 201.7260411 53.96166576 203 56 C201.46164785 60.2600521 198.26312145 62.4064204 194.75 65 C193.90888672 65.63808594 193.90888672 65.63808594 193.05078125 66.2890625 C189.45286766 68.99788428 185.76783505 71.53378069 182 74 C177.36512761 70.60109358 174.44417773 67.75378745 173 62 C172.65087765 57.67893111 172.71646552 53.39390127 172.8125 49.0625 C172.82603516 47.90169922 172.83957031 46.74089844 172.85351562 45.54492188 C172.8886859 42.69612948 172.93790713 39.84831156 173 37 C172.46890625 37.39977051 171.9378125 37.79954102 171.390625 38.21142578 C170.68421875 38.7423584 169.9778125 39.27329102 169.25 39.8203125 C168.55390625 40.34383301 167.8578125 40.86735352 167.140625 41.40673828 C164.12572979 43.65071708 161.06683372 45.82765945 158 48 C156.02 45.03 156.02 45.03 154 42 C154 45.63 154 49.26 154 53 C155.32 53.66 156.64 54.32 158 55 C158.99 56.65 159.98 58.3 161 60 C152.585 66.93 152.585 66.93 144 74 C137 69.33333333 137 69.33333333 135 65 C135 64.01 135 63.02 135 62 C132.85349184 63.64495966 130.70776711 65.29092326 128.5625 66.9375 C127.95083984 67.40607422 127.33917969 67.87464844 126.70898438 68.35742188 C123.75031115 70.55671824 123.75031115 70.55671824 121 73 C118.6875 73.375 118.6875 73.375 116 73 C113.6875 70.5 113.6875 70.5 112 68 C109.33610156 68.96196332 107.24582445 69.79382465 105.0625 71.625 C102.08214273 73.61190485 100.52601423 73.62223781 97 73 C92.97549577 70.40381668 89.76126726 67.52403943 88 63 C88 61.68 88 60.36 88 59 C87.34 59 86.68 59 86 59 C85.731875 59.598125 85.46375 60.19625 85.1875 60.8125 C81.93435941 66.8051274 75.83790818 70.05664318 69.61328125 72.3046875 C62.71908558 74.13901759 56.95845849 73.68685736 50.75 70.14453125 C47.12082335 67.77098491 44.03729155 65.07210291 41 62 C40.11957031 62.80566406 39.23914063 63.61132812 38.33203125 64.44140625 C37.15955726 65.48256315 35.98634102 66.5228846 34.8125 67.5625 C34.23435547 68.09552734 33.65621094 68.62855469 33.06054688 69.17773438 C28.70029697 72.99603231 28.70029697 72.99603231 25.2421875 73.015625 C20.56872956 70.89872768 18.12666655 66.47668164 16 62 C15.11957031 62.80566406 14.23914063 63.61132812 13.33203125 64.44140625 C12.15955726 65.48256315 10.98634102 66.5228846 9.8125 67.5625 C9.23435547 68.09552734 8.65621094 68.62855469 8.06054688 69.17773438 C3.70259436 72.99402047 3.70259436 72.99402047 0.24609375 73.0234375 C-3.7546386 71.20049511 -6.04138101 67.91723797 -8 64 C-8.039992 62.00039988 -8.04346799 59.99952758 -8 58 C-8.84594727 58.68944702 -8.84594727 58.68944702 -9.70898438 59.39282227 C-12.28791234 61.4730202 -14.89303436 63.51756979 -17.5 65.5625 C-18.386875 66.28630859 -19.27375 67.01011719 -20.1875 67.75585938 C-27.70441195 73.58699328 -27.70441195 73.58699328 -32.41796875 73.1328125 C-38.50050646 71.20921824 -41.77912841 68.12667955 -44.9375 62.625 C-45.288125 61.75875 -45.63875 60.8925 -46 60 C-50.80391491 62.51113734 -54.69550605 65.4063407 -58.875 68.875 C-64.15362729 72.87356017 -64.15362729 72.87356017 -67.5625 73.3828125 C-72.54298735 72.55833993 -75.66674369 70.10806828 -78.65234375 66.1328125 C-83.47495195 58.50051083 -86.93706147 51.21443776 -86 42 C-82.7273009 34.19341532 -75.82692333 27.5257694 -68.875 22.9375 C-63.81357064 21.2870339 -60.40586451 21.39748664 -55.5 23.5 C-51.2008533 26.19062242 -48.13528128 30.0737511 -45 34 C-44.50371094 33.46890625 -44.00742188 32.9378125 -43.49609375 32.390625 C-37.95874843 26.63262645 -33.40318601 21.9607581 -25.0625 21.375 C-18.40321996 21.61900415 -14.50626597 25.49373403 -10 30 C-9.67 27.03 -9.34 24.06 -9 21 C-10.65 21.66 -12.3 22.32 -14 23 C-17 17.375 -17 17.375 -17 14 C-14.8046875 11.9140625 -14.8046875 11.9140625 -11.875 9.625 C-10.87597656 8.83480469 -9.87695312 8.04460937 -8.84765625 7.23046875 C-7.90792969 6.49441406 -6.96820313 5.75835937 -6 5 C-4.76587268 3.9851694 -3.53535933 2.9658805 -2.3125 1.9375 C-1.1678125 0.9784375 -1.1678125 0.9784375 0 0 Z " fill="#161616" transform="translate(213,191)"/>
<path d="M0 0 C3.82622743 1.5588334 6.25147379 3.95433582 9 7 C9.99455909 9.98367726 10.19559632 12.2004192 10.31640625 15.32421875 C10.35830078 16.35224609 10.40019531 17.38027344 10.44335938 18.43945312 C10.48267578 19.51130859 10.52199219 20.58316406 10.5625 21.6875 C10.60568359 22.77095703 10.64886719 23.85441406 10.69335938 24.97070312 C10.79946838 27.64700791 10.90152361 30.32340526 11 33 C11.45890625 32.45730469 11.9178125 31.91460937 12.390625 31.35546875 C13.00421875 30.64003906 13.6178125 29.92460937 14.25 29.1875 C14.85328125 28.47980469 15.4565625 27.77210938 16.078125 27.04296875 C19.35716425 23.55732337 21.0929185 22.11518495 25.9375 21.5 C29.21155941 21.64632668 30.03766896 22.0262045 32.875 24 C35.50945526 27.71923096 36.16912455 30.5434862 37 35 C37.99 34.01 38.98 33.02 40 32 C41.16556422 35.61235934 40.96707118 38.85680531 40.8125 42.625 C40.78884567 50.21803895 41.69759598 56.29772243 46.87109375 62.09765625 C52.59395936 67.36615446 57.02543172 69.30515366 64.7734375 69.13671875 C67.56262339 68.96545295 70.26372298 68.56128759 73 68 C72.25 69.9375 72.25 69.9375 71 72 C65.08460472 74.02368786 58.3186548 73.97475232 52.6875 71.25 C48.25820528 68.7228016 44.573531 65.61448838 41 62 C40.11957031 62.80566406 39.23914063 63.61132812 38.33203125 64.44140625 C37.15955726 65.48256315 35.98634102 66.5228846 34.8125 67.5625 C34.23435547 68.09552734 33.65621094 68.62855469 33.06054688 69.17773438 C28.70029697 72.99603231 28.70029697 72.99603231 25.2421875 73.015625 C20.56872956 70.89872768 18.12666655 66.47668164 16 62 C15.11957031 62.80566406 14.23914063 63.61132812 13.33203125 64.44140625 C12.15955726 65.48256315 10.98634102 66.5228846 9.8125 67.5625 C9.23435547 68.09552734 8.65621094 68.62855469 8.06054688 69.17773438 C3.70259436 72.99402047 3.70259436 72.99402047 0.24609375 73.0234375 C-3.7546386 71.20049511 -6.04138101 67.91723797 -8 64 C-8.039992 62.00039988 -8.04346799 59.99952758 -8 58 C-8.84594727 58.68944702 -8.84594727 58.68944702 -9.70898438 59.39282227 C-12.28791234 61.4730202 -14.89303436 63.51756979 -17.5 65.5625 C-18.386875 66.28630859 -19.27375 67.01011719 -20.1875 67.75585938 C-27.70441195 73.58699328 -27.70441195 73.58699328 -32.41796875 73.1328125 C-38.50050646 71.20921824 -41.77912841 68.12667955 -44.9375 62.625 C-45.288125 61.75875 -45.63875 60.8925 -46 60 C-50.80391491 62.51113734 -54.69550605 65.4063407 -58.875 68.875 C-64.15362729 72.87356017 -64.15362729 72.87356017 -67.5625 73.3828125 C-72.54298735 72.55833993 -75.66674369 70.10806828 -78.65234375 66.1328125 C-83.47495195 58.50051083 -86.93706147 51.21443776 -86 42 C-82.7273009 34.19341532 -75.82692333 27.5257694 -68.875 22.9375 C-63.81357064 21.2870339 -60.40586451 21.39748664 -55.5 23.5 C-51.2008533 26.19062242 -48.13528128 30.0737511 -45 34 C-44.50371094 33.46890625 -44.00742188 32.9378125 -43.49609375 32.390625 C-37.95874843 26.63262645 -33.40318601 21.9607581 -25.0625 21.375 C-18.40321996 21.61900415 -14.50626597 25.49373403 -10 30 C-9.67 27.03 -9.34 24.06 -9 21 C-10.65 21.66 -12.3 22.32 -14 23 C-17 17.375 -17 17.375 -17 14 C-14.8046875 11.9140625 -14.8046875 11.9140625 -11.875 9.625 C-10.87597656 8.83480469 -9.87695312 8.04460937 -8.84765625 7.23046875 C-7.90792969 6.49441406 -6.96820313 5.75835937 -6 5 C-4.76587268 3.9851694 -3.53535933 2.9658805 -2.3125 1.9375 C-1.1678125 0.9784375 -1.1678125 0.9784375 0 0 Z " fill="#1A1818" transform="translate(213,191)"/>
<path d="M0 0 C0.99 0.33 1.98 0.66 3 1 C3.0093457 2.19488037 3.01869141 3.38976074 3.02832031 4.62084961 C3.06843762 9.0885027 3.13425542 13.55548282 3.20751953 18.02270508 C3.23560372 19.94969993 3.2568802 21.87680729 3.27099609 23.80395508 C3.29260057 26.58733198 3.33933811 29.3693739 3.390625 32.15234375 C3.39185364 33.00271713 3.39308228 33.85309052 3.39434814 34.72923279 C3.54284446 40.90574665 5.13100878 45.54640362 8 51 C12.75110323 51 13.67131852 50.06537864 17.25 47.125 C18.14203125 46.40570313 19.0340625 45.68640625 19.953125 44.9453125 C20.62859375 44.30335938 21.3040625 43.66140625 22 43 C22 42.34 22 41.68 22 41 C20.35 40.67 18.7 40.34 17 40 C17.54285879 35.51810484 18.67067101 32.2441017 20.875 28.3125 C21.38804687 27.38050781 21.90109375 26.44851562 22.4296875 25.48828125 C23.81108935 23.29934349 25.00263496 21.63172718 27 20 C27.66 20 28.32 20 29 20 C29.01458252 20.72590332 29.02916504 21.45180664 29.04418945 22.19970703 C29.11894859 25.50865732 29.2155179 28.81662952 29.3125 32.125 C29.33505859 33.26710937 29.35761719 34.40921875 29.38085938 35.5859375 C29.63477723 43.74908362 29.63477723 43.74908362 33 51 C36.76687864 51 37.91190305 50.76462683 41 49 C39.68 51.31 38.36 53.62 37 56 C33.12445494 55.77854028 32.0600682 55.06286207 29.3125 52.1875 C27.55733145 49.76821361 26.2649692 47.66278905 25 45 C24.11957031 45.80566406 23.23914063 46.61132812 22.33203125 47.44140625 C21.15955726 48.48256315 19.98634102 49.5228846 18.8125 50.5625 C18.23435547 51.09552734 17.65621094 51.62855469 17.06054688 52.17773438 C12.70259436 55.99402047 12.70259436 55.99402047 9.24609375 56.0234375 C5.2453614 54.20049511 2.95861899 50.91723797 1 47 C0.960008 45.00039988 0.95653201 42.99952758 1 41 C0.15405273 41.68944702 0.15405273 41.68944702 -0.70898438 42.39282227 C-3.28791234 44.4730202 -5.89303436 46.51756979 -8.5 48.5625 C-9.8303125 49.64821289 -9.8303125 49.64821289 -11.1875 50.75585938 C-18.70441195 56.58699328 -18.70441195 56.58699328 -23.41796875 56.1328125 C-29.50050646 54.20921824 -32.77912841 51.12667955 -35.9375 45.625 C-36.288125 44.75875 -36.63875 43.8925 -37 43 C-41.80391491 45.51113734 -45.69550605 48.4063407 -49.875 51.875 C-55.15362729 55.87356017 -55.15362729 55.87356017 -58.5625 56.3828125 C-63.54298735 55.55833993 -66.66674369 53.10806828 -69.65234375 49.1328125 C-74.47495195 41.50051083 -77.93706147 34.21443776 -77 25 C-73.7273009 17.19341532 -66.82692333 10.5257694 -59.875 5.9375 C-54.81357064 4.2870339 -51.40586451 4.39748664 -46.5 6.5 C-42.16838306 9.21094394 -39.20541258 13.075005 -36 17 C-33.36 14.36 -30.72 11.72 -28 9 C-27.34 9.33 -26.68 9.66 -26 10 C-28.13680263 13.9174715 -30.71131182 17.07064633 -33.6953125 20.3515625 C-36.82319917 24.30356302 -36.54292939 29.22368875 -36 34 C-34.16004829 40.14835348 -31.75885282 46.8219583 -26.625 50.875 C-23.36086114 52.27391665 -22.36361811 52.08303732 -19 51 C-16.67110958 49.36838216 -14.4993366 47.73798721 -12.3125 45.9375 C-6.24334925 41 -6.24334925 41 -4 41 C-4.66 40.01 -5.32 39.02 -6 38 C-6.53625 38.33 -7.0725 38.66 -7.625 39 C-10.72046073 40.30335189 -12.66574641 40.47632194 -16 40 C-20.80658747 36.45228068 -23.2953209 31.62637256 -25 26 C-25.28913054 23.22801828 -25.20334293 20.7959653 -25 18 C-19.37082652 18.40208382 -16.99613521 20.28930302 -13 24 C-10.69 22.35 -8.38 20.7 -6 19 C-5.34 19.33 -4.68 19.66 -4 20 C-5.32332319 23.96996957 -8.0089399 25.76036395 -11.24609375 28.14453125 C-13 29 -13 29 -16 28 C-17.84499398 26.12382302 -19.3683599 24.07262391 -21 22 C-20.30711018 26.74681237 -19.58305076 30.21209357 -16.6875 34.125 C-14.20415835 36.25213311 -14.20415835 36.25213311 -11.5 35.9375 C-7.72703714 34.52635778 -7.72703714 34.52635778 -4 33 C-1 36.75 -1 36.75 -1 39 C-0.34 39 0.32 39 1 39 C1 27.12 1 15.24 1 3 C0.01 2.67 -0.98 2.34 -2 2 C-1.34 1.34 -0.68 0.68 0 0 Z " fill="#131313" transform="translate(204,208)"/>
<path d="M0 0 C2.98988704 0.15332754 4.50197102 0.50669167 6.6484375 2.6328125 C8.45949879 5.80478689 8.29628358 8.12388074 8.1875 11.75 C8.14689453 13.50570312 8.14689453 13.50570312 8.10546875 15.296875 C8.07066406 16.18890625 8.03585937 17.0809375 8 18 C11.96 18 15.92 18 20 18 C18.85090741 22.59637036 17.61821446 24.03964271 14 27 C12.35 27 10.7 27 9 27 C9.495 37.395 9.495 37.395 10 48 C14.73647686 48.26352314 14.73647686 48.26352314 18 47 C18.33 47.99 18.66 48.98 19 50 C17.08435828 51.60540415 15.16753088 53.209355 13.25 54.8125 C12.71117187 55.26431641 12.17234375 55.71613281 11.6171875 56.18164062 C8.79990684 58.53510069 5.964465 60.83421368 3 63 C-0.06452451 62.04894067 -0.96236348 61.06296879 -2.625 58.28125 C-4.97110534 52.50181977 -4.31270129 46.18452214 -4.1875 40.0625 C-4.17396484 38.80630859 -4.16042969 37.55011719 -4.14648438 36.25585938 C-4.11128591 33.17012721 -4.06204305 30.08528976 -4 27 C-6.31 27 -8.62 27 -11 27 C-11 27.66 -11 28.32 -11 29 C-12.8984375 30.7265625 -12.8984375 30.7265625 -15.375 32.625 C-16.18710937 33.25664062 -16.99921875 33.88828125 -17.8359375 34.5390625 C-20 36 -20 36 -22 36 C-22.61875 35.195625 -23.2375 34.39125 -23.875 33.5625 C-25.90039207 30.60560001 -25.90039207 30.60560001 -30 30 C-30 36.6 -30 43.2 -30 50 C-28.02 50 -26.04 50 -24 50 C-24.28751107 53.21422633 -25.09917158 54.09344717 -27.50390625 56.359375 C-28.51324219 57.14828125 -29.52257812 57.9371875 -30.5625 58.75 C-31.57441406 59.54921875 -32.58632813 60.3484375 -33.62890625 61.171875 C-34.41136719 61.77515625 -35.19382812 62.3784375 -36 63 C-39.19925565 62.00712756 -39.99954251 61.00078831 -41.70703125 58.05859375 C-43.56788436 53.19920957 -43.56437278 48.20921766 -43.6875 43.0625 C-43.72166016 42.09248047 -43.75582031 41.12246094 -43.79101562 40.12304688 C-43.87288574 37.74881363 -43.94223078 35.37492123 -44 33 C-46.49064888 32.31292445 -48.37886292 32 -51 32 C-50.75722624 28.64815577 -49.78030433 27.79196679 -47.27734375 25.421875 C-46.17185454 24.52159636 -45.05823943 23.6312214 -43.9375 22.75 C-43.36966797 22.29109375 -42.80183594 21.8321875 -42.21679688 21.359375 C-40.8180802 20.23099852 -39.40992986 19.1143337 -38 18 C-34.67240077 19.55194754 -32.51419515 21.30621949 -30 24 C-29.55269531 23.55527344 -29.10539062 23.11054688 -28.64453125 22.65234375 C-23.6914385 18.01607997 -23.6914385 18.01607997 -20.3125 17.9375 C-17.91076854 19.04099824 -16.00971822 20.28801781 -14 22 C-11.53199953 20.84826645 -9.95216435 19.95216435 -8 18 C-6.68 18 -5.36 18 -4 18 C-4.33 16.35 -4.66 14.7 -5 13 C-7.31 13.33 -9.62 13.66 -12 14 C-12 12.68 -12 11.36 -12 10 C-9.8828125 7.9296875 -9.8828125 7.9296875 -7.125 5.875 C-3.41959866 3.10179294 -3.41959866 3.10179294 0 0 Z " fill="#F9F9F9" transform="translate(393,198)"/>
<path d="M0 0 C1.175625 0.165 2.35125 0.33 3.5625 0.5 C5.2640625 0.7475 5.2640625 0.7475 7 1 C14.93017137 1.35905101 14.93017137 1.35905101 22.75390625 0.37109375 C23.49511719 0.24863281 24.23632812 0.12617188 25 0 C27.3125 1.9375 27.3125 1.9375 29 4 C27.39965411 8.25408401 24.22145826 10.85227137 20.875 13.75 C20.05902344 14.50990234 20.05902344 14.50990234 19.2265625 15.28515625 C18.67484375 15.76339844 18.123125 16.24164063 17.5546875 16.734375 C17.06468262 17.16975586 16.57467773 17.60513672 16.06982422 18.05371094 C14 19 14 19 6 19 C6.33 27.91 6.66 36.82 7 46 C7.99 46 8.98 46 10 46 C12.1875 48.5 12.1875 48.5 14 51 C11.9923061 55.53324777 9.0091948 57.79826071 5.1875 60.8125 C4.57068359 61.32748047 3.95386719 61.84246094 3.31835938 62.37304688 C-1.26215178 66.0092231 -1.26215178 66.0092231 -4.8125 65.96484375 C-8.55336233 64.31485626 -10.26357847 61.41912184 -12.10107422 57.87817383 C-13.33175211 53.93779859 -13.247896 50.30193764 -13.1953125 46.19921875 C-13.1924826 45.36284378 -13.18965271 44.52646881 -13.18673706 43.66474915 C-13.1755832 41.00551774 -13.15048763 38.34662882 -13.125 35.6875 C-13.11496399 33.87956217 -13.10583923 32.07161904 -13.09765625 30.26367188 C-13.07565959 25.84231688 -13.04116294 21.42121642 -13 17 C-14.43634649 17.15356453 -15.87250968 17.30884419 -17.30859375 17.46484375 C-18.10837646 17.55113037 -18.90815918 17.63741699 -19.73217773 17.72631836 C-22.18787481 18.0226728 -24.58737522 18.45521376 -27 19 C-28.32 16.69 -29.64 14.38 -31 12 C-20.86945106 3.66197796 -13.60453385 -2.2644031 0 0 Z " fill="#E25D14" transform="translate(109,198)"/>
<path d="M0 0 C3.41465245 1.41295964 5.13553331 2.79631446 7 6 C7.32401552 8.61041978 7.48791105 10.9968694 7.51171875 13.609375 C7.53864555 14.69958954 7.53864555 14.69958954 7.56611633 15.81182861 C7.62013241 18.12449407 7.6540856 20.43695421 7.6875 22.75 C7.72068093 24.3216431 7.75517132 25.89325914 7.79101562 27.46484375 C7.87585328 31.30974746 7.94270506 35.15459122 8 39 C8.68835938 37.88177856 8.68835938 37.88177856 9.390625 36.7409668 C10.00421875 35.75781494 10.6178125 34.77466309 11.25 33.76171875 C11.85328125 32.78936279 12.4565625 31.81700684 13.078125 30.81518555 C15.81069012 26.81249139 18.81256888 23.48782672 23 21 C26.875 20.375 26.875 20.375 30 21 C32.38948197 24.58422296 32.30233168 26.37232596 32.4140625 30.63671875 C32.47207031 32.58481445 32.47207031 32.58481445 32.53125 34.57226562 C32.56270517 35.94400573 32.59395251 37.31575061 32.625 38.6875 C32.66319197 40.07098785 32.70224442 41.45445223 32.7421875 42.83789062 C32.83660517 46.2251245 32.92218118 49.61235069 33 53 C34.65 53 36.3 53 38 53 C38 54.32 38 55.64 38 57 C35.59375 59.359375 35.59375 59.359375 32.5 61.75 C30.96859375 62.94882812 30.96859375 62.94882812 29.40625 64.171875 C28.6121875 64.77515625 27.818125 65.3784375 27 66 C24.218832 65.04097655 23.03915843 64.0522699 21.26171875 61.6796875 C19.37472774 56.17645057 19.68549545 50.89556574 19.8125 45.125 C19.82603516 43.9596875 19.83957031 42.794375 19.85351562 41.59375 C19.88874179 38.72868882 19.93800285 35.86458623 20 33 C16.50303946 36.27691371 13.98825785 39.32748055 11.75 43.5625 C11.24984375 44.49191406 10.7496875 45.42132813 10.234375 46.37890625 C9.17897607 48.61995904 8.47789867 50.5820603 8 53 C9.65 53 11.3 53 13 53 C13 54.32 13 55.64 13 57 C10.59375 59.359375 10.59375 59.359375 7.5 61.75 C6.4790625 62.54921875 5.458125 63.3484375 4.40625 64.171875 C3.6121875 64.77515625 2.818125 65.3784375 2 66 C-1.4429716 64.61411448 -2.7169253 63.37631454 -4.21191406 59.99047852 C-6.24772814 55.00021944 -6.60165576 50.49503996 -6.609375 45.15234375 C-6.62591125 44.25504044 -6.64244751 43.35773712 -6.65948486 42.4332428 C-6.70760057 39.6012564 -6.72925404 36.76980544 -6.75 33.9375 C-6.77819023 32.00322879 -6.80812188 30.06898214 -6.83984375 28.13476562 C-6.91334928 23.42322125 -6.96314556 18.71196779 -7 14 C-8.98 14 -10.96 14 -13 14 C-12.75722624 10.64815577 -11.78030433 9.79196679 -9.27734375 7.421875 C-8.17185454 6.52159636 -7.05823943 5.6312214 -5.9375 4.75 C-5.36966797 4.29109375 -4.80183594 3.8321875 -4.21679688 3.359375 C-2.8180802 2.23099852 -1.40992986 1.1143337 0 0 Z " fill="#F8F8F8" transform="translate(213,195)"/>
<path d="M0 0 C3.63160688 2.42107126 5.93762542 4.88059876 8.5625 8.3125 C10.71829946 11.27036469 10.71829946 11.27036469 13.8125 11.375 C14.534375 11.25125 15.25625 11.1275 16 11 C16.495 12.485 16.495 12.485 17 14 C15.16354705 15.37809359 13.30491782 16.72666615 11.4375 18.0625 C10.40496094 18.81660156 9.37242187 19.57070312 8.30859375 20.34765625 C4.22176739 22.3886569 2.33678522 22.33439545 -2 21 C-4.22265625 18.93359375 -4.22265625 18.93359375 -6.0625 16.4375 C-7.81122187 13.9039933 -7.81122187 13.9039933 -10 12 C-13.0900234 11.47867225 -13.0900234 11.47867225 -16 12 C-19.19093913 15.19093913 -20.15982921 18.63504709 -20.3125 23.0625 C-20.2259048 30.6581365 -16.82423655 38.21091614 -12 44 C-8.66120142 46.67103886 -5.8029163 47.88321217 -1.5625 48.5 C2.30185699 47.95763411 4.85814368 46.80170924 8.203125 44.875 C10 44 10 44 13 44 C10.31358212 50.59393479 3.52339335 56.35574977 -2.8125 59.3125 C-9.43660095 60.74122766 -15.07305501 60.79691093 -21.08203125 57.390625 C-27.00770261 53.09421155 -31.67096086 47.28598241 -33 40 C-33.93967217 29.96899954 -33.26944577 23.35148605 -27.01171875 15.5078125 C-20.22743787 7.610394 -11.4332885 -2.14512376 0 0 Z " fill="#E15D14" transform="translate(286,201)"/>
<path d="M0 0 C4.32969957 1.73331827 7.06582619 3.60636075 9.67578125 7.5 C11.49224676 12.30104158 11.56669692 16.78056152 11.6875 21.875 C11.72166016 22.84953125 11.75582031 23.8240625 11.79101562 24.828125 C11.87304293 27.21863491 11.94233848 29.60879905 12 32 C13.65 32.33 15.3 32.66 17 33 C15.71010083 36.86969751 13.8079307 38.15446294 10.6875 40.75 C9.72199219 41.56984375 8.75648438 42.3896875 7.76171875 43.234375 C5 45 5 45 2.75390625 44.95703125 C-0.07322971 43.41438468 -0.77914499 40.86900927 -2 38 C-4.81019835 39.23648728 -6.99373797 40.78671435 -9.375 42.6875 C-12.02004216 44.59623492 -12.7948938 44.99195662 -16.1875 45.125 C-20.26497555 43.49400978 -22.07314239 40.85371521 -24 37 C-24.73131455 32.99439077 -24.78965453 29.49547587 -22.859375 25.83984375 C-18.12197818 19.87210358 -11.87644607 16.98092243 -5 14 C-8.46670236 11.6888651 -9.85654877 11.75701117 -13.9375 11.8125 C-14.97777344 11.81894531 -16.01804687 11.82539063 -17.08984375 11.83203125 C-19.56066692 11.97464252 -21.64177041 12.28968988 -24 13 C-24.33 12.01 -24.66 11.02 -25 10 C-9.62840242 -2.56656153 -9.62840242 -2.56656153 0 0 Z " fill="#F7F7F7" transform="translate(328,216)"/>
<path d="M0 0 C4.985069 2.61613125 8.84353172 5.99724025 10.890625 11.3125 C11 14 11 14 8.8671875 16.5 C7.87976563 17.325 6.89234375 18.15 5.875 19 C2.08310284 22.21858645 -1.53135417 25.44241453 -5 29 C-1.4513865 31.36574234 -0.4235475 31.10865265 3.6875 30.625 C4.68136719 30.51414063 5.67523438 30.40328125 6.69921875 30.2890625 C7.45847656 30.19367188 8.21773437 30.09828125 9 30 C9 33 9 33 7.6105957 34.45800781 C5.52251035 36.07156424 3.42871779 37.67342696 1.3125 39.25 C0.59126953 39.8171875 -0.12996094 40.384375 -0.87304688 40.96875 C-6.18572334 44.96659968 -6.18572334 44.96659968 -9.76171875 45.11328125 C-15.21897704 42.39893812 -19.56092452 36.71607109 -22 31.1875 C-23.5788512 25.8215395 -24.22233099 20.48989122 -23 15 C-20.51427723 11.04369511 -17.50319497 8.06599624 -14 5 C-13.36964844 4.42894531 -12.73929688 3.85789063 -12.08984375 3.26953125 C-8.08413205 0.01203904 -5.06252252 -0.90402188 0 0 Z " fill="#F8F8F8" transform="translate(154,216)"/>
<path d="M0 0 C4.18355965 2.69814481 7.24822719 5.87234079 10 10 C10.94875 9.938125 11.8975 9.87625 12.875 9.8125 C13.90625 9.874375 14.9375 9.93625 16 10 C18.4375 12.8125 18.4375 12.8125 20 16 C18.63146539 20.10560382 15.85745508 21.44571423 12.375 23.6875 C11.46814453 24.31108398 11.46814453 24.31108398 10.54296875 24.94726562 C6.27523326 27.71810881 3.21827335 28.70365739 -2 28 C-4.109375 26.828125 -4.109375 26.828125 -5.75 25.25 C-6.32878906 24.70601562 -6.90757812 24.16203125 -7.50390625 23.6015625 C-9 22 -9 22 -10.6875 19.625 C-11.120625 19.08875 -11.55375 18.5525 -12 18 C-13.32 18 -14.64 18 -16 18 C-18.49414472 22.98828944 -17.64416317 30.3690203 -16.3515625 35.6484375 C-14.22060155 40.98494655 -11.07606856 45.17403746 -6 48 C-1.54783009 48.78108244 0.29011858 48.41757731 4.1875 46.125 C5.115625 45.42375 6.04375 44.7225 7 44 C8.3191582 43.30570621 9.64649406 42.62469505 11 42 C11.99 42.99 12.98 43.98 14 45 C14.66 43.948125 15.32 42.89625 16 41.8125 C18.94285445 37.63992251 22.55874891 35.39144289 27 33 C21.44946714 33.74359673 21.44946714 33.74359673 16 35 C12 29.25 12 29.25 12 27 C13.96147874 25.61061923 15.96166576 24.2739589 18 23 C18.66 23.33 19.32 23.66 20 24 C19.34 25.32 18.68 26.64 18 28 C17.34 28 16.68 28 16 28 C16.495 28.99 16.495 28.99 17 30 C17.53625 29.84144531 18.0725 29.68289062 18.625 29.51953125 C21.45164252 28.9012032 24.10715052 28.75620518 27 28.6875 C28.03125 28.65011719 29.0625 28.61273438 30.125 28.57421875 C33.65703893 29.09730604 34.77548624 30.28887385 37 33 C36.3709375 33.20753906 35.741875 33.41507813 35.09375 33.62890625 C28.47647709 36.01072587 21.30456876 39.39086248 18 46 C17.42778469 50.69028939 17.61955194 54.1805734 19.625 58.5 C21.82690834 61.1091923 21.82690834 61.1091923 24.6875 62.3125 C29.31221376 61.87620625 31.56025032 59.51238313 34.94921875 56.46875 C35.62597656 55.9840625 36.30273438 55.499375 37 55 C40 56 40 56 41.6875 59.0625 C42.120625 60.031875 42.55375 61.00125 43 62 C45.92879371 61.37240135 48.36095629 60.41377341 51 59 C49.68 61.31 48.36 63.62 47 66 C44.75 66.3125 44.75 66.3125 42 66 C39.6875 63.5 39.6875 63.5 38 61 C35.33610156 61.96196332 33.24582445 62.79382465 31.0625 64.625 C28.08214273 66.61190485 26.52601423 66.62223781 23 66 C18.97549577 63.40381668 15.76126726 60.52403943 14 56 C14 54.68 14 53.36 14 52 C13.34 52 12.68 52 12 52 C11.73832031 52.59554687 11.47664063 53.19109375 11.20703125 53.8046875 C8.4596461 58.80154982 3.40445384 62.36228672 -2 64 C-1.05057398 60.3077877 0.2094296 58.65548737 3.3125 56.625 C7.30639698 54.00974947 9.41905649 50.98873088 12 47 C10.93072266 47.54140625 10.93072266 47.54140625 9.83984375 48.09375 C-0.40211241 53.05620521 -0.40211241 53.05620521 -6 52 C-12.78335234 49.03310023 -16.9399068 44.53552778 -19.96875 37.8671875 C-22.44025304 31.29939703 -23.26650455 25.16626138 -20.625 18.5625 C-19 16 -19 16 -17 14 C-14.12109375 13.59765625 -14.12109375 13.59765625 -11 14 C-8.91015625 15.93359375 -8.91015625 15.93359375 -7.0625 18.4375 C-4.53559868 21.45162994 -3.2744339 22.87802938 0.375 24.5 C5.90539835 23.73718643 9.91623949 20.7238889 14 17 C14.495 15.515 14.495 15.515 15 14 C14.27167969 14.26554688 13.54335938 14.53109375 12.79296875 14.8046875 C10 15 10 15 7.61328125 12.9453125 C6.85402344 12.01460937 6.09476562 11.08390625 5.3125 10.125 C1.38963267 5.15018571 1.38963267 5.15018571 -4.5 3.5625 C-12.04856344 3.6855744 -18.07374235 8.88288819 -23.3125 13.875 C-26.43917329 17.14035638 -28.77213959 20.54697685 -30.89453125 24.53125 C-31.44173828 25.25828125 -31.44173828 25.25828125 -32 26 C-32.99 26 -33.98 26 -35 26 C-32.30446986 16.1876998 -23.46648074 8.266544 -15.10546875 2.75 C-10.28380733 0.01106807 -5.48808657 -1.45076375 0 0 Z " fill="#15110E" transform="translate(287,198)"/>
<path d="M0 0 C3.82816757 2.02242815 6.89070191 4.1536329 9 8 C7.77946141 11.66161578 6.63217696 12.16270474 3.4375 14.1875 C2.61121094 14.71730469 1.78492188 15.24710938 0.93359375 15.79296875 C0.29550781 16.19128906 -0.34257812 16.58960938 -1 17 C-1.53109375 16.57847656 -2.0621875 16.15695313 -2.609375 15.72265625 C-3.31578125 15.17480469 -4.0221875 14.62695312 -4.75 14.0625 C-5.44609375 13.51722656 -6.1421875 12.97195312 -6.859375 12.41015625 C-8.96092128 11.02574346 -10.54321799 10.43713013 -13 10 C-11.94049169 16.67769052 -10.54219474 23.1509667 -7 29 C-3.67538284 31.21641144 -3.22126724 31.18319009 0.5 30.625 C3.07261664 30.25625828 5.39031074 30 8 30 C8 33 8 33 6.62646484 34.45800781 C4.55583965 36.07418277 2.47684029 37.67454003 0.375 39.25 C-0.33785156 39.8171875 -1.05070312 40.384375 -1.78515625 40.96875 C-7.12046211 45.00204544 -7.12046211 45.00204544 -11.359375 44.9921875 C-17.41632706 42.71635048 -20.21020936 37.48338159 -23 32 C-25.159232 27.0337664 -25.72208527 22.34530651 -25 17 C-22.17001249 9.98655268 -16.44342319 4.63030224 -9.9609375 0.79296875 C-6.67936672 -0.53404095 -3.44170161 -0.54377559 0 0 Z " fill="#F7F7F7" transform="translate(192,216)"/>
<path d="M0 0 C1.175625 0.165 2.35125 0.33 3.5625 0.5 C5.2640625 0.7475 5.2640625 0.7475 7 1 C14.93017137 1.35905101 14.93017137 1.35905101 22.75390625 0.37109375 C23.49511719 0.24863281 24.23632812 0.12617188 25 0 C27.3125 1.9375 27.3125 1.9375 29 4 C27.39965411 8.25408401 24.22145826 10.85227137 20.875 13.75 C20.05902344 14.50990234 20.05902344 14.50990234 19.2265625 15.28515625 C18.67484375 15.76339844 18.123125 16.24164063 17.5546875 16.734375 C17.06468262 17.16975586 16.57467773 17.60513672 16.06982422 18.05371094 C14 19 14 19 6 19 C6.33 27.91 6.66 36.82 7 46 C7.99 46 8.98 46 10 46 C12.1875 48.5 12.1875 48.5 14 51 C11.9923061 55.53324777 9.0091948 57.79826071 5.1875 60.8125 C4.57068359 61.32748047 3.95386719 61.84246094 3.31835938 62.37304688 C-1.26215178 66.0092231 -1.26215178 66.0092231 -4.8125 65.96484375 C-8.55336233 64.31485626 -10.26357847 61.41912184 -12.10107422 57.87817383 C-13.33175211 53.93779859 -13.247896 50.30193764 -13.1953125 46.19921875 C-13.1924826 45.36284378 -13.18965271 44.52646881 -13.18673706 43.66474915 C-13.1755832 41.00551774 -13.15048763 38.34662882 -13.125 35.6875 C-13.11496399 33.87956217 -13.10583923 32.07161904 -13.09765625 30.26367188 C-13.07565959 25.84231688 -13.04116294 21.42121642 -13 17 C-14.43634649 17.15356453 -15.87250968 17.30884419 -17.30859375 17.46484375 C-18.10837646 17.55113037 -18.90815918 17.63741699 -19.73217773 17.72631836 C-22.18787481 18.0226728 -24.58737522 18.45521376 -27 19 C-28.32 16.69 -29.64 14.38 -31 12 C-20.86945106 3.66197796 -13.60453385 -2.2644031 0 0 Z M-24 11 C-24.99 11.495 -24.99 11.495 -26 12 C-26 12.99 -26 13.98 -26 15 C-18.08 14.505 -18.08 14.505 -10 14 C-10.01571045 15.18029785 -10.0314209 16.3605957 -10.04760742 17.57666016 C-10.10205894 21.97112152 -10.13640538 26.36555326 -10.16479492 30.76025391 C-10.17984691 32.65939353 -10.20029316 34.55849859 -10.22631836 36.45751953 C-10.26285992 39.19312081 -10.27976238 41.928261 -10.29296875 44.6640625 C-10.30845261 45.50804596 -10.32393646 46.35202942 -10.33988953 47.22158813 C-10.34130574 52.2239721 -9.85446989 55.70763064 -7 60 C-5.68 60.99 -4.36 61.98 -3 63 C1.29 59.7 5.58 56.4 10 53 C9.67 52.01 9.34 51.02 9 50 C7.35 49.67 5.7 49.34 4 49 C3.67 38.11 3.34 27.22 3 16 C6.3 16 9.6 16 13 16 C16.16323465 14.19807296 16.16323465 14.19807296 18.5 11.5625 C19.3146875 10.73878906 20.129375 9.91507813 20.96875 9.06640625 C21.6390625 8.38449219 22.309375 7.70257813 23 7 C23.66 6.67 24.32 6.34 25 6 C24.505 4.515 24.505 4.515 24 3 C23.47277344 3.16242188 22.94554687 3.32484375 22.40234375 3.4921875 C19.41250728 4.12418545 16.61763038 4.13206389 13.5625 4.125 C12.45003906 4.12757813 11.33757812 4.13015625 10.19140625 4.1328125 C7.31318512 4.01303341 4.80910589 3.58432865 2 3 C-9.368476 1.72662567 -15.48374971 3.41396161 -24 11 Z " fill="#0D0A08" transform="translate(109,198)"/>
<path d="M0 0 C0.66 0.33 1.32 0.66 2 1 C-1.39179828 6.36122955 -4.93270371 9.75363773 -10.109375 13.421875 C-12.27481772 14.94834693 -12.27481772 14.94834693 -13 18 C-12.05125 17.79375 -11.1025 17.5875 -10.125 17.375 C-8.578125 17.189375 -8.578125 17.189375 -7 17 C-4.54702944 19.45297056 -4.74179403 20.171598 -4.69140625 23.54296875 C-4.66626953 24.45240234 -4.64113281 25.36183594 -4.61523438 26.29882812 C-4.5804358 28.20501665 -4.549112 30.11127218 -4.52148438 32.01757812 C-4.35584673 37.7583364 -3.65297623 41.88506183 -1 47 C0.32 47 1.64 47 3 47 C3.99 47 4.98 47 6 47 C4.68 48.98 3.36 50.96 2 53 C-2.19394018 50.48363589 -4.926633 48.49229517 -7 44 C-7 43.01 -7 42.02 -7 41 C-12.94 45.455 -12.94 45.455 -19 50 C-19 46.45459812 -18.40614728 45.93992636 -16.125 43.375 C-15.59132813 42.76398438 -15.05765625 42.15296875 -14.5078125 41.5234375 C-13 40 -13 40 -11 39 C-11.33 38.34 -11.66 37.68 -12 37 C-14.02463255 36.34786708 -14.02463255 36.34786708 -16 36 C-16.01458252 35.39526855 -16.02916504 34.79053711 -16.04418945 34.16748047 C-16.11909188 31.40270735 -16.21561073 28.63908643 -16.3125 25.875 C-16.34633789 24.44800781 -16.34633789 24.44800781 -16.38085938 22.9921875 C-16.58513327 17.64392544 -16.94658111 13.58375473 -20 9 C-24.77373724 5.22079135 -28.98323514 4.15938239 -35.06640625 4.328125 C-40.63925948 5.60446422 -44.75593875 9.32236085 -49 13 C-49 10 -49 10 -46.8125 7.5625 C-45.884375 6.716875 -44.95625 5.87125 -44 5 C-43.2575 4.236875 -42.515 3.47375 -41.75 2.6875 C-37.14302523 -0.13950725 -32.74713399 0.380111 -27.59375 1.54296875 C-23.03981183 2.9167401 -19.3712221 4.52342721 -16 8 C-15.375 10.12890625 -15.375 10.12890625 -15 12 C-9.92377741 8.08566836 -4.89372312 4.14084264 0 0 Z " fill="#151515" transform="translate(355,212)"/>
<path d="M0 0 C0.01458252 0.72590332 0.02916504 1.45180664 0.04418945 2.19970703 C0.11894859 5.50865732 0.2155179 8.81662952 0.3125 12.125 C0.33505859 13.26710937 0.35761719 14.40921875 0.38085938 15.5859375 C0.63477723 23.74908362 0.63477723 23.74908362 4 31 C7.76687864 31 8.91190305 30.76462683 12 29 C10.02 32.465 10.02 32.465 8 36 C4.12445494 35.77854028 3.0600682 35.06286207 0.3125 32.1875 C-2 29 -2 29 -4 25 C-9.445 29.455 -9.445 29.455 -15 34 C-15 30.45459812 -14.40614728 29.93992636 -12.125 27.375 C-11.59132812 26.76398438 -11.05765625 26.15296875 -10.5078125 25.5234375 C-9 24 -9 24 -7 23 C-7 22.34 -7 21.68 -7 21 C-8.65 20.67 -10.3 20.34 -12 20 C-11.45714121 15.51810484 -10.32932899 12.2441017 -8.125 8.3125 C-7.35542969 6.91451172 -7.35542969 6.91451172 -6.5703125 5.48828125 C-3.10675039 0 -3.10675039 0 0 0 Z " fill="#1E1E1E" transform="translate(233,228)"/>
<path d="M0 0 C2.31 0 4.62 0 7 0 C7 7.59 7 15.18 7 23 C6.67 23 6.34 23 6 23 C6 15.74 6 8.48 6 1 C4.02 1.33 2.04 1.66 0 2 C0 1.34 0 0.68 0 0 Z M-2 2 C-1.34 2.33 -0.68 2.66 0 3 C-2.98127544 8.12779375 -6.03353764 10.75269769 -11 14 C-12.32 12.02 -13.64 10.04 -15 8 C-15 11.63 -15 15.26 -15 19 C-13.68 19.66 -12.36 20.32 -11 21 C-10.01 22.65 -9.02 24.3 -8 26 C-12.95 29.96 -17.9 33.92 -23 38 C-23 33.8471102 -20.75930507 31.84553335 -18 29 C-16.66666667 28 -15.33333333 27 -14 26 C-13.67 25.01 -13.34 24.02 -13 23 C-14.98 23 -16.96 23 -19 23 C-19 16.4 -19 9.8 -19 3 C-13.1509434 4.16981132 -13.1509434 4.16981132 -11 7 C-11 7.66 -11 8.32 -11 9 C-9.68677212 8.02180976 -8.37443848 7.0424189 -7.0625 6.0625 C-6.33160156 5.51722656 -5.60070312 4.97195312 -4.84765625 4.41015625 C-3.0865547 3.13092062 -3.0865547 3.13092062 -2 2 Z " fill="#1B1B1B" transform="translate(382,225)"/>
<path d="M0 0 C0 5.94 0 11.88 0 18 C-1.32 17.01 -2.64 16.02 -4 15 C-4 14.34 -4 13.68 -4 13 C-4.86625 13.680625 -5.7325 14.36125 -6.625 15.0625 C-10 17 -10 17 -13.125 17.0625 C-16.78353445 15.71043292 -17.95012502 14.29444193 -20 11 C-21.78931218 6.82493825 -22.12779587 5.51118346 -21 1 C-19.02 3.31 -17.04 5.62 -15 8 C-10.53939095 6.60605967 -7.36767444 4.11795013 -3.76953125 1.2421875 C-2 0 -2 0 0 0 Z " fill="#F7F7F7" transform="translate(204,228)"/>
<path d="M0 0 C0.66 0.33 1.32 0.66 2 1 C1.54625 1.37125 1.0925 1.7425 0.625 2.125 C-1.47029394 4.54264685 -2.12013285 6.95430602 -3 10 C-1.68 9.67 -0.36 9.34 1 9 C0.67 9.66 0.34 10.32 0 11 C0.66 11.33 1.32 11.66 2 12 C2 23.88 2 35.76 2 48 C1.34 47.67 0.68 47.34 0 47 C0.33 41.06 0.66 35.12 1 29 C0.01 29.66 -0.98 30.32 -2 31 C-2.99 30.67 -3.98 30.34 -5 30 C-4.34 28.35 -3.68 26.7 -3 25 C-6.23909577 20.48814573 -6.23909577 20.48814573 -11 18 C-16.65900147 17.5508729 -19.20579661 17.84952349 -24 21 C-24.99 20.67 -25.98 20.34 -27 20 C-21.00793651 13.85025063 -21.00793651 13.85025063 -15.375 13.5625 C-8.4499866 13.59260875 -4.67842497 17.32157503 0 22 C0.33 19.03 0.66 16.06 1 13 C-0.65 13.66 -2.3 14.32 -4 15 C-7 9.375 -7 9.375 -7 6 C-5.46875 4.39453125 -5.46875 4.39453125 -3.5 2.8125 C-2.8503125 2.28269531 -2.200625 1.75289062 -1.53125 1.20703125 C-1.0259375 0.80871094 -0.520625 0.41039062 0 0 Z " fill="#262626" transform="translate(203,199)"/>
<path d="M0 0 C0.99 0.33 1.98 0.66 3 1 C3.01401855 2.79232056 3.01401855 2.79232056 3.02832031 4.62084961 C3.06843762 9.0885027 3.13425542 13.55548282 3.20751953 18.02270508 C3.23560372 19.94969993 3.2568802 21.87680729 3.27099609 23.80395508 C3.29260057 26.58733198 3.33933811 29.3693739 3.390625 32.15234375 C3.39185364 33.00271713 3.39308228 33.85309052 3.39434814 34.72923279 C3.54284446 40.90574665 5.13100878 45.54640362 8 51 C11.76687864 51 12.91190305 50.76462683 16 49 C14.68 51.31 13.36 53.62 12 56 C9.34303932 55.84817368 7.55765476 55.52675976 5.58984375 53.66796875 C2.42010884 49.86983159 0.87253769 47.61180832 0.88647461 42.73388672 C0.88658791 41.41274368 0.88658791 41.41274368 0.88670349 40.06491089 C0.89186478 39.11278717 0.89702606 38.16066345 0.90234375 37.1796875 C0.9037587 36.20589142 0.90517365 35.23209534 0.90663147 34.22879028 C0.91224027 31.11082927 0.92479427 27.9929394 0.9375 24.875 C0.94251387 22.76432395 0.94707697 20.65364678 0.95117188 18.54296875 C0.96221255 13.36195479 0.97895927 8.18098248 1 3 C0.01 2.67 -0.98 2.34 -2 2 C-1.34 1.34 -0.68 0.68 0 0 Z " fill="#090909" transform="translate(204,208)"/>
<path d="M0 0 C1.32 0.33 2.64 0.66 4 1 C4.09796875 1.7734375 4.1959375 2.546875 4.296875 3.34375 C5.65478143 12.80227064 7.54328584 19.91513884 15.265625 26.00390625 C17.055071 27.22307626 17.055071 27.22307626 19.6875 27 C21.84071193 26.06888133 23.9487966 25.13955744 26 24 C23.7100073 29.66471877 23.7100073 29.66471877 20.75 31.0625 C15.40375704 30.94099448 12.09033859 29.06437814 8.375 25.4375 C2.42587962 17.55787035 -0.19235467 9.81008794 0 0 Z " fill="#1C1C1C" transform="translate(127,233)"/>
<path d="M0 0 C0.01458252 0.61931396 0.02916504 1.23862793 0.04418945 1.87670898 C0.11947417 4.73087773 0.21586314 7.58397749 0.3125 10.4375 C0.33505859 11.41138672 0.35761719 12.38527344 0.38085938 13.38867188 C0.66043385 20.9880144 1.72829455 27.59244182 6 34 C7.98 33.34 9.96 32.68 12 32 C9.25 37.875 9.25 37.875 7 39 C2.36512761 35.60109358 -0.55582227 32.75378745 -2 27 C-2.34912235 22.67893111 -2.28353448 18.39390127 -2.1875 14.0625 C-2.17396484 12.90169922 -2.16042969 11.74089844 -2.14648438 10.54492188 C-2.1113141 7.69612948 -2.06209287 4.84831156 -2 2 C-2.78375 2.515625 -3.5675 3.03125 -4.375 3.5625 C-5.24125 4.036875 -6.1075 4.51125 -7 5 C-7.66 4.67 -8.32 4.34 -9 4 C-5.99418694 0.43755489 -4.60262464 -0.24425205 0 0 Z " fill="#0A0A0A" transform="translate(388,226)"/>
<path d="M0 0 C0.13496251 2.10241603 0.23197307 4.2072961 0.3125 6.3125 C0.37050781 7.48425781 0.42851562 8.65601563 0.48828125 9.86328125 C0 13 0 13 -2.33203125 14.98046875 C-5 16 -5 16 -8 15 C-9.56935594 11.86128812 -9.35201103 9.46144178 -9 6 C-4.04347826 0 -4.04347826 0 0 0 Z " fill="#3B3B3B" transform="translate(326,235)"/>
<path d="M0 0 C0.66 0.33 1.32 0.66 2 1 C1.67 1.66 1.34 2.32 1 3 C2.65 2.01 4.3 1.02 6 0 C6 1.98 6 3.96 6 6 C4.35 6.66 2.7 7.32 1 8 C1.33 9.32 1.66 10.64 2 12 C-3.859375 13.171875 -3.859375 13.171875 -6 13 C-7.32 11.68 -8.64 10.36 -10 9 C-6.7 6.03 -3.4 3.06 0 0 Z " fill="#1E1E1E" transform="translate(158,235)"/>
<path d="M0 0 C2.3125 0.0625 2.3125 0.0625 5 1 C9 5.73684211 9 5.73684211 9 9.125 C7.68807111 11.58486667 6.1195949 13.20155584 4 15 C3.34 15 2.68 15 2 15 C-1.00244501 9.99592499 -1.38493338 6.67776737 -1 1 C-0.67 0.67 -0.34 0.34 0 0 Z " fill="#323232" transform="translate(143,225)"/>
<path d="M0 0 C0.66 0.33 1.32 0.66 2 1 C0.61013153 4.2594885 -0.91215416 5.95488675 -3.6875 8.125 C-7.84827839 11.59735869 -10.58928637 15.48791248 -13.45703125 20.05859375 C-13.96621094 20.69925781 -14.47539062 21.33992188 -15 22 C-15.99 22 -16.98 22 -18 22 C-15.38487185 12.48038008 -7.46700213 6.03715066 0 0 Z " fill="#0F0A08" transform="translate(270,202)"/>
<path d="M0 0 C0.66 0.33 1.32 0.66 2 1 C1.34 2.32 0.68 3.64 0 5 C-0.66 5 -1.32 5 -2 5 C-1.67 5.66 -1.34 6.32 -1 7 C1.64 6.67 4.28 6.34 7 6 C7 6.33 7 6.66 7 7 C9.97 7.495 9.97 7.495 13 8 C9.46786119 10.3547592 8.13424407 10 4 10 C0.72435637 10.92414941 0.72435637 10.92414941 -2 12 C-6 6.25 -6 6.25 -6 4 C-4.03852126 2.61061923 -2.03833424 1.2739589 0 0 Z " fill="#1E1E1E" transform="translate(305,221)"/>
<path d="M0 0 C0.66 0.33 1.32 0.66 2 1 C1.54625 1.37125 1.0925 1.7425 0.625 2.125 C-1.47029394 4.54264685 -2.12013285 6.95430602 -3 10 C-1.68 9.67 -0.36 9.34 1 9 C0.67 9.66 0.34 10.32 0 11 C0.66 11.33 1.32 11.66 2 12 C2 16.62 2 21.24 2 26 C1.34 25.34 0.68 24.68 0 24 C0.0234375 21.3984375 0.0234375 21.3984375 0.375 18.375 C0.48585937 17.37210938 0.59671875 16.36921875 0.7109375 15.3359375 C0.85402344 14.17964844 0.85402344 14.17964844 1 13 C-0.65 13.66 -2.3 14.32 -4 15 C-7 9.375 -7 9.375 -7 6 C-5.46875 4.39453125 -5.46875 4.39453125 -3.5 2.8125 C-2.8503125 2.28269531 -2.200625 1.75289062 -1.53125 1.20703125 C-1.0259375 0.80871094 -0.520625 0.41039062 0 0 Z " fill="#2C2C2C" transform="translate(203,199)"/>
<path d="M0 0 C3.63 0 7.26 0 11 0 C11 11.55 11 23.1 11 35 C10.67 35 10.34 35 10 35 C10 24.11 10 13.22 10 2 C4.06 2.495 4.06 2.495 -2 3 C-1.34 2.01 -0.68 1.02 0 0 Z " fill="#060300" transform="translate(88,212)"/>
<path d="M0 0 C0 4.62 0 9.24 0 14 C-1.65 13.67 -3.3 13.34 -5 13 C-5.08121924 11.39667209 -5.13929134 9.79215974 -5.1875 8.1875 C-5.22230469 7.29417969 -5.25710938 6.40085938 -5.29296875 5.48046875 C-5 3 -5 3 -3.61328125 1.17578125 C-2 0 -2 0 0 0 Z " fill="#E6E6E6" transform="translate(347,232)"/>
<path d="M0 0 C7.38461538 -0.49230769 7.38461538 -0.49230769 10.5 2 C10.995 2.66 11.49 3.32 12 4 C11.32453125 4.26554688 10.6490625 4.53109375 9.953125 4.8046875 C9.06109375 5.15789062 8.1690625 5.51109375 7.25 5.875 C6.36828125 6.22304687 5.4865625 6.57109375 4.578125 6.9296875 C2.3259752 7.8646709 0.16350541 8.87780794 -2 10 C-0.52307692 5.32307692 -0.52307692 5.32307692 2.125 3.6875 C2.74375 3.460625 3.3625 3.23375 4 3 C2.35 2.67 0.7 2.34 -1 2 C-0.67 1.34 -0.34 0.68 0 0 Z " fill="#0B0B0B" transform="translate(312,227)"/>
<path d="M0 0 C0.66 0.33 1.32 0.66 2 1 C2 1.99 2 2.98 2 4 C0.20703125 5.71875 0.20703125 5.71875 -2.1875 7.5 C-3.00476563 8.10972656 -3.82203125 8.71945313 -4.6640625 9.34765625 C-7.04349397 11.0307658 -9.4434712 12.59803259 -12 14 C-9.38243868 8.32861715 -5.24688193 3.43065357 0 0 Z " fill="#151515" transform="translate(213,191)"/>
<path d="M0 0 C0.33 0 0.66 0 1 0 C1.66 7.92 2.32 15.84 3 24 C2.01 24.33 1.02 24.66 0 25 C0 16.75 0 8.5 0 0 Z " fill="#8A8A8A" transform="translate(248,220)"/>
<path d="M0 0 C0.3125 2.8125 0.3125 2.8125 0 6 C-2.6522856 8.27338765 -4.32901036 8.95526736 -7.8125 9.1875 C-8.8953125 9.0946875 -8.8953125 9.0946875 -10 9 C-2.8 0 -2.8 0 0 0 Z " fill="#F1F1F1" transform="translate(164,235)"/>
<path d="M0 0 C0.66 0.33 1.32 0.66 2 1 C1.67 2.32 1.34 3.64 1 5 C2.65 5 4.3 5 6 5 C5.67 6.32 5.34 7.64 5 9 C3.35 9.33 1.7 9.66 0 10 C-1.98 6.535 -1.98 6.535 -4 3 C-2.68 2.01 -1.36 1.02 0 0 Z " fill="#15100D" transform="translate(82,207)"/>
<path d="M0 0 C0.66 0.33 1.32 0.66 2 1 C-2.35690968 8.00217628 -2.35690968 8.00217628 -6 10 C-6.99 9.67 -7.98 9.34 -9 9 C-6.21000549 5.51250686 -3.74764169 2.49842779 0 0 Z " fill="#181818" transform="translate(198,249)"/>
<path d="M0 0 C0.66 0.33 1.32 0.66 2 1 C-0.53363068 5.22271781 -2.56620325 7.78310162 -7 10 C-7 7 -7 7 -4.625 4.4375 C-3.75875 3.633125 -2.8925 2.82875 -2 2 C-1.34 1.34 -0.68 0.68 0 0 Z " fill="#1F1F1F" transform="translate(310,233)"/>
<path d="M0 0 C0 0.66 0 1.32 0 2 C1.32 2.33 2.64 2.66 4 3 C2.58398286 3.48108275 1.16715563 3.95978141 -0.25 4.4375 C-1.03890625 4.70433594 -1.8278125 4.97117188 -2.640625 5.24609375 C-4.74821988 5.91954708 -6.84753973 6.49150595 -9 7 C-6.82616588 2.86971516 -4.97872903 0 0 0 Z " fill="#1D1D1D" transform="translate(185,213)"/>
<path d="M0 0 C0.66 0.33 1.32 0.66 2 1 C1.34 1.66 0.68 2.32 0 3 C0.33 3.66 0.66 4.32 1 5 C-1.97 6.65 -4.94 8.3 -8 10 C-6.04034872 6.08069743 -4.13572386 3.97491751 -1 1 C-0.67 0.67 -0.34 0.34 0 0 Z " fill="#1B1B1B" transform="translate(324,253)"/>
<path d="M0 0 C1.16306443 3.54950034 0.92365049 6.55823948 0.5625 10.25 C0.40974609 11.86648437 0.40974609 11.86648437 0.25390625 13.515625 C0.17011719 14.33546875 0.08632812 15.1553125 0 16 C-0.33 16 -0.66 16 -1 16 C-1.06058594 15.39671875 -1.12117187 14.7934375 -1.18359375 14.171875 C-1.30927734 12.97304687 -1.30927734 12.97304687 -1.4375 11.75 C-1.51871094 10.96109375 -1.59992188 10.1721875 -1.68359375 9.359375 C-1.94140266 7.00567595 -1.94140266 7.00567595 -2.625 4.8125 C-2.74875 4.214375 -2.8725 3.61625 -3 3 C-1.5625 1.25 -1.5625 1.25 0 0 Z " fill="#371D0E" transform="translate(253,223)"/>
<path d="M0 0 C0.66 0.33 1.32 0.66 2 1 C-0.35684596 4.34920216 -3.06799526 7.14723863 -6 10 C-6 6.41087588 -5.33563446 5.89142971 -3 3.3125 C-2.443125 2.68988281 -1.88625 2.06726563 -1.3125 1.42578125 C-0.879375 0.95527344 -0.44625 0.48476562 0 0 Z " fill="#181818" transform="translate(224,252)"/>
<path d="M0 0 C0.33 0 0.66 0 1 0 C1 2.97 1 5.94 1 9 C-0.32 8.34 -1.64 7.68 -3 7 C-1.125 2.25 -1.125 2.25 0 0 Z " fill="#E7E7E7" transform="translate(228,237)"/>
</svg>
